<?xml version="1.0" encoding="utf-8"?>
<!-- Generator: Adobe Illustrator 27.0.0, SVG Export Plug-In . SVG Version: 6.00 Build 0)  -->
<svg version="1.1" id="uuid-7b270302-3bad-4429-bcb6-a44dcf6f558e" xmlns="http://www.w3.org/2000/svg" xmlns:xlink="http://www.w3.org/1999/xlink" x="0px" y="0px" viewBox="0 0 500 500" style="enable-background:new 0 0 500 500; border-radius: 3px" xml:space="preserve">
  <style type="text/css">
    .st0 {
      fill: #06B6D4;
    }

    .st1 {
      fill: #FFFFFF;
    }
  </style>
  <rect class="st0" width="500" height="500" />
  <path class="st1" d="M252.7,55.8c-0.9,0-1.8,0-2.7,0s-1.8,0-2.7,0c-75.9,1.7-127,78.4-101,149.7l15,41l66.5,182.2
	c3.4,9.3,12.3,15.6,22.2,15.6h0c9.9,0,18.8-6.2,22.2-15.6l66.5-182.2l14.9-41C379.7,134.2,328.5,57.5,252.7,55.8z M250,225.8
	c-29.8,0-54-24.2-54-54s24.2-54,54-54s54,24.2,54,54S279.8,225.8,250,225.8z" />
</svg>