<?xml version="1.0" encoding="utf-8"?>
<!-- Generator: Adobe Illustrator 27.0.0, SVG Export Plug-In . SVG Version: 6.00 Build 0)  -->
<svg version="1.1" id="uuid-7b270302-3bad-4429-bcb6-a44dcf6f558e" xmlns="http://www.w3.org/2000/svg" xmlns:xlink="http://www.w3.org/1999/xlink" x="0px" y="0px" viewBox="0 0 500 500" style="enable-background:new 0 0 500 500; border-radius: 3px" xml:space="preserve">
  <style type="text/css">
    .st0 {
      fill: #0284C7;
    }
  </style>
  <path class="st0" d="M0,0v500h500V0H0z M79.7,107.9h340.7c7.6,0,14.6,2.9,19.5,7.8L250.1,278.5l-190-162.8
	C65.2,110.8,72.2,107.9,79.7,107.9z M51,132.9l137.4,119.3L51,369V132.9z M420.4,392.1H79.7c-7.6,0-14.5-2.9-19.6-7.8l140.7-120.6
	l49.3,43.2l49.1-43.2l140.7,120.6C434.8,389.2,428,392.1,420.4,392.1z M449,369L311.6,252.2L449,132.7V369z" />
</svg>