<?xml version="1.0" encoding="utf-8"?>
<!-- Generator: Adobe Illustrator 27.0.0, SVG Export Plug-In . SVG Version: 6.00 Build 0)  -->
<svg version="1.1" id="uuid-86bc2d82-ea1a-4b0f-b822-1435ec9a3db3"
	 xmlns="http://www.w3.org/2000/svg" xmlns:xlink="http://www.w3.org/1999/xlink" x="0px" y="0px" viewBox="0 0 1069.8 245.2"
	 style="enable-background:new 0 0 1069.8 245.2;" xml:space="preserve">
<style type="text/css">
	.st0{fill:#001D38;}
</style>
<path class="st0" d="M77.9,80.4V62.7c0-7.8-2.1-14.2-6.4-19.1c-5-5.7-11.9-8.5-20.7-8.5S35.2,37.9,30,43.4c-6,6.4-8.9,15-8.9,25.9
	s1.3,12.4,4,16.5c-7.3,0.6-13.2,3.1-17.6,7.4c-5,5.1-7.4,11.8-7.4,20.2v37.1l18.8-9.8v-26.4c0-3.9,0.8-6.6,2.4-8.3
	c1.6-1.6,4.3-2.5,8-2.5H50c8.8,0,15.7-2.2,20.5-6.3c4.9-4.1,7.3-9.8,7.4-17.1V80.4z M59.1,77.4c0,5.6-2.9,8.3-8.6,8.3
	s-11.2-5.7-11.2-17s1-9,3.1-11.9c2-2.9,4.8-4.3,8.4-4.3c5.6,0,8.3,3.3,8.3,9.8L59.1,77.4L59.1,77.4z"/>
<path class="st0" d="M129.4,102.7c0.9,0,2.2,0.2,3.9,0.4c1.7,0,2.9,0.2,3.7,0.3c-0.3,3.2-2.1,5.9-5.3,8.2c-3.2,2.3-6.9,3.4-11.1,3.4
	s-10.7-1.5-16.1-4.6v16.2c6,3.4,12.1,5.1,18.3,5.1c6.2,0,14.9-2.2,20.8-6.6c7.2-5.4,11.2-12.5,11.9-21.4h102.6
	c7.4,0,13.4-2,17.9-6.1c5.4-4.9,8-12,8-21.3v-3.6c0-10.1-3-18.6-8.9-25.5C268.2,39.1,258.8,35,247,35s-24.8,5.2-35,15.6V7.7
	l-18.8,10v63.4c-0.7,1.7-1.2,3.2-1.6,4.6h-36V62.6c0-7.8-2.1-14.2-6.4-19.1c-5-5.7-11.9-8.5-20.7-8.5s-15.6,2.8-20.8,8.3
	c-6,6.4-8.9,15-8.9,25.9s2.3,15.4,7,21.3C111.4,97.4,119.2,101.5,129.4,102.7L129.4,102.7z M212,81.4c4.1-9,9.2-16.1,15.4-21.2
	s12.8-7.7,19.7-7.7s9.8,1.9,13.2,5.7s5.1,8.6,5.1,14.6v2.8c0,4.2-0.5,6.9-1.6,8.2c-1,1.3-3.2,1.9-6.5,1.9h-45.4v-4.3H212z
	 M128.5,52.5c5.7,0,8.5,3.3,8.5,9.8v23.2c-3.1-0.2-5.3-0.4-6.7-0.7c-8.7-1.1-13.1-6.5-13.1-16.1S121,52.5,128.5,52.5z"/>
<path class="st0" d="M349,103.8h22c16.2,0,30.5-3.9,42.9-11.8c4.1,4.4,8.5,7.4,13.2,9.2c4.7,1.7,11,2.6,18.8,2.6H460
	c8.9,0,16.1-2.6,21.4-7.9c5.9-5.8,8.8-13.4,8.8-23.1V7.7l-18.6,10v54.9c0,4.8-1,8.1-2.9,10.1s-5.2,3-9.8,3h-13
	c-9.1,0-15.7-1.2-19.7-3.6c2.6-2.6,4.7-4.9,6.3-7v-7.4c-5.7-10.4-12.2-18.5-19.5-24.1c-7.3-5.7-14.9-8.5-22.6-8.5
	s-19.9,4.6-28.3,13.7v16.5c9.4-8.6,18.1-13,26.1-13S406,58.2,412.8,70c-10.3,10.4-24.2,15.6-41.7,15.6h-26.6c-3.8,0-6.5-0.8-8-2.5
	c-1.6-1.6-2.4-4.4-2.4-8.3V37.7H334c0,0.1,0,0,0,0l-6.4,3.4l-12.2,6.4v48.2c0,6.3-1.5,11.1-4.5,14.7c-3,3.5-7.3,5.3-12.7,5.3
	s-10-1.4-15.2-4.3v16.4c6,3.2,12.1,4.8,18.3,4.8s14.9-2.5,20.7-7.4c6.4-5.6,10.2-13.1,11.5-22.6c2.9,0.9,6,1.3,9.4,1.3h6.3
	L349,103.8z"/>
<path class="st0" d="M395.1,22.6c6.5,0,9.7-3.3,9.7-10s-0.9-5.3-2.6-7.1c-1.7-1.7-4.1-2.6-7.1-2.6s-5.4,0.9-7.1,2.7
	c-1.8,1.8-2.7,4.1-2.7,7s0.9,5.5,2.7,7.3S392.2,22.6,395.1,22.6z"/>
<polygon class="st0" points="535.8,7.7 517.1,17.7 517.1,103.8 535.8,103.8 "/>
<path class="st0" d="M631.7,19.7c6.5,0,9.7-3.3,9.7-10s-0.9-5.3-2.6-7.1c-1.7-1.7-4.1-2.6-7.1-2.6c-6.6,0-9.8,3.2-9.8,9.7
	s0.9,5.5,2.7,7.3S628.8,19.7,631.7,19.7L631.7,19.7z"/>
<path class="st0" d="M608.8,19.7c6.5,0,9.7-3.3,9.7-10s-0.9-5.3-2.6-7.1c-1.7-1.7-4.1-2.6-7.1-2.6c-6.6,0-9.8,3.2-9.8,9.7
	s0.9,5.5,2.7,7.3S605.9,19.7,608.8,19.7L608.8,19.7z"/>
<path class="st0" d="M876.5,22.6c6.5,0,9.7-3.3,9.7-10s-0.9-5.3-2.6-7.1c-1.7-1.7-4.1-2.6-7.1-2.6s-5.4,0.9-7.1,2.7
	c-1.8,1.8-2.7,4.1-2.7,7s0.9,5.5,2.7,7.3C871.2,21.7,873.6,22.6,876.5,22.6L876.5,22.6z"/>
<path class="st0" d="M803.8,103.8h84.3c6.8,0,12.6-1.8,17.1-5.5c4.6,3.7,10.4,5.5,17.6,5.5h21.4c7.2,0,13.2-1.9,18-5.8
	c4.8,3.9,10.8,5.8,18,5.8h21.4c6.7,0,12.5-1.7,17.3-5.2c5.1,3.5,11.6,5.2,19.5,5.2s14.8-2.8,20.1-8.3c5.9-6.4,8.8-15,8.8-26.1
	s-2.3-17.3-7-23.4c-5.5-7.2-13.1-10.9-22.9-10.9s-13.9,2.2-18.8,6.6c-5.6,5.1-8.3,12.1-8.3,21v12.4c0,3.9-0.8,6.6-2.4,8.3
	c-1.6,1.6-4.3,2.5-8,2.5H982c-3.8,0-6.5-0.8-8-2.5c-1.6-1.6-2.4-4.4-2.4-8.3V37.7l-18.8,9.8V75c0,3.9-0.8,6.6-2.4,8.3
	c-1.6,1.6-4.3,2.5-8,2.5h-17.9c-7,0-10.6-3.3-10.6-9.8v-3.1c0-10.1-3-18.6-8.9-25.5c-6.9-8.1-16.3-12.2-28.1-12.2
	s-24.7,5.2-34.8,15.5v-43l-18.8,10v63l-1.8,5.1h-31c-3.8,0-6.5-0.8-8.1-2.5c-1.6-1.6-2.5-4.4-2.5-8.3v-4.3c0-10.1-2.3-18.3-6.8-24.6
	c-5.5-7.3-13.2-11-23.2-11s-15.9,2.8-21.1,8.5c-6.1,6.5-9.1,15.5-9.1,27.1V75c0,3.9-0.8,6.6-2.4,8.3c-1.6,1.6-4.3,2.5-8,2.5h-52.4
	c-3.8,0-6.5-0.8-8.1-2.5s-2.5-4.4-2.5-8.3V25.5l-18.6,9.8v3.9c-3.1-1.4-6.5-2.1-10.1-2.1c-7,0-13.2,2.6-18.6,7.7
	c-6.4,6.2-9.5,14.1-9.5,24s2.2,14.7,6.7,20.4c5.5,6.8,12.8,10.3,21.9,10.3s11.4-1.6,15.6-4.9c5.1,6.2,12.2,9.2,21.4,9.2h56
	c7,0,13-1.8,17.7-5.5c5.2,5.7,12.2,8.5,21.1,8.5s15.8-2.8,21.1-8.5c4.6,3.7,10.4,5.5,17.6,5.5H803.8z M1029.1,62.4
	c0-6.6,2.8-9.8,8.3-9.8s11.5,5.4,11.5,16.2s-3.7,17-11,17s-8.8-2.8-8.8-8.3V62.4L1029.1,62.4z M842.1,81.2c4.1-8.9,9.2-15.9,15.4-21
	s12.7-7.6,19.6-7.6s9.8,1.9,13.2,5.7s5.1,8.6,5.1,14.6v2.8c0,4.2-0.5,6.9-1.6,8.2c-1,1.3-3.2,1.9-6.5,1.9H842L842.1,81.2L842.1,81.2
	z M619.1,83.6c-3.5,0-6.2-1.3-8.2-3.9s-3-6.1-3-10.4s1-7.9,3.1-10.6c2-2.7,4.7-4,8-4s6.2,1.1,8.8,3.3v18c0,1.7,0,2.9,0.1,3.7
	C625.8,82.3,622.9,83.6,619.1,83.6L619.1,83.6z M750,88.8c-7.6,0-11.5-6.2-11.5-18.5s3.8-17.7,11.5-17.7s11.3,5.9,11.3,17.7
	S757.5,88.8,750,88.8z"/>
<path class="st0" d="M958.2,22.6c6.5,0,9.7-3.3,9.7-10s-0.9-5.3-2.6-7.1c-1.7-1.7-4.1-2.6-7.1-2.6s-5.4,0.9-7.1,2.7s-2.7,4.1-2.7,7
	s0.9,5.5,2.7,7.3C952.9,21.7,955.3,22.6,958.2,22.6L958.2,22.6z"/>
<path class="st0" d="M87,171.9c2.5,0,3.8-1.4,3.8-4.1s-1.3-3.9-3.8-3.9s-4,1.3-4,3.9S84.3,171.9,87,171.9z"/>
<path class="st0" d="M72,167.8c0,2.7,1.3,4.1,4,4.1s3.8-1.4,3.8-4.1s-1.3-3.9-3.8-3.9S72,165.2,72,167.8z"/>
<path class="st0" d="M138.7,236.9c-2.6,0-3.9,1.3-3.9,4s1.3,4,3.9,4s3.9-1.3,3.9-4S141.3,236.9,138.7,236.9z"/>
<path class="st0" d="M127.6,236.9c-2.6,0-3.9,1.3-3.9,4s1.3,4,3.9,4s3.9-1.3,3.9-4S130.2,236.9,127.6,236.9z"/>
<path class="st0" d="M225.7,168.3c0,2.7,1.3,4.1,4,4.1s3.8-1.4,3.8-4.1s-1.3-3.9-3.8-3.9S225.7,165.7,225.7,168.3z"/>
<path class="st0" d="M263.1,168.7c0,2.7,1.3,4,3.9,4s3.9-1.3,3.9-4s-1.3-4-3.9-4S263.1,166,263.1,168.7z"/>
<path class="st0" d="M252,168.7c0,2.7,1.3,4,3.9,4c2.6,0,3.9-1.3,3.9-4s-1.3-4-3.9-4S252,166,252,168.7z"/>
<path class="st0" d="M292.6,209.2c0,7.6-3.7,11.4-11.1,11.4h-4.2c-7.1,0-10.7-3.7-10.7-11.1v-24.4l-6.5,3.4v21
	c0,7.4-3.6,11.1-10.7,11.1h-4.8c-7.1,0-10.7-3.7-10.7-11.1v-24.4l-6.5,3.4v21c0,7.4-3.6,11.1-10.7,11.1h-4.8
	c-7.2,0-10.8-3.7-10.8-11.1v-3.3c0-6.5-1.4-11.6-4.2-15.5c-3.2-4.5-7.8-6.8-13.9-6.8s-9.5,1.7-12.7,5.2c-3.6,3.9-5.4,9.6-5.4,17.1
	v3.3c0,7.4-3.6,11.1-10.7,11.1h-4.8c-7.1,0-10.7-3.7-10.7-11.1v-24.4l-6.5,3.4v21c0,7.4-3.6,11.1-10.7,11.1h-16
	c-7.2,0-10.8-3.7-10.8-11.1v-30.3l-6.5,3.4v5.2c-2.8-2.5-6.4-3.7-10.6-3.7s-8.6,1.6-11.7,4.9c-3.6,3.8-5.4,8.7-5.4,14.9
	s1.4,9.7,4.1,13.3c3.2,4.2,7.6,6.3,13.2,6.3s9.1-1.7,12.4-5.2c2.7,5.4,7.5,8.1,14.4,8.1h17.6c5.8,0,10.1-2,13.2-5.9
	c2.9,3.9,7.3,5.9,13.1,5.9h6.4c5.9,0,10.3-2,13.3-6c3.2,5.3,8.1,8,14.7,8s11.5-2.7,14.7-8c2.9,4.1,7.3,6.1,13.2,6.1h6.4
	c5.8,0,10.1-2,13.2-5.9c2.9,3.9,7.3,5.9,13.1,5.9h6.4c5.8,0,10.1-2,13.2-5.9c2.9,3.9,7.3,5.9,13.1,5.9h5.6c5,0,9-1.5,12-4.4
	c3.2-3.2,4.8-7.5,4.8-13v-45.2l-6.5,3.4V209L292.6,209.2z M78.3,218.1c-3.3,0-6-1.3-8-3.8s-3.1-5.9-3.1-10.1s1-7.5,3.1-10.1
	c2-2.6,4.7-3.9,7.9-3.9s7.5,1.7,10.4,5.1v14.4c0,0.7,0,1.6,0.2,2.8c-2.8,3.7-6.3,5.5-10.5,5.5V218.1z M191.8,218.1
	c-2.1,2.9-4.9,4.4-8.4,4.4c-7.8,0-11.6-5.5-11.6-16.4s3.9-16.3,11.6-16.3s11.5,5.4,11.5,16.3S193.9,215.1,191.8,218.1z"/>
<polygon class="st0" points="316.5,226.7 323,226.7 323,164.1 316.5,167.5 "/>
<path class="st0" d="M355.6,184c-5.2,0-9.4,1.7-12.6,5c-3.6,3.8-5.4,9.1-5.4,15.9s1.4,10.3,4.1,14c3.2,4.3,7.6,6.5,13.2,6.5
	s7.8-0.8,10.5-2.3c-0.2,7.4-2.6,12.3-7.1,14.5c-2,1.2-4.3,1.7-7,1.7s-6.6-0.9-10-2.7v5.7c3.6,1.8,7.2,2.7,11,2.7s3.5-0.2,5-0.7
	c4.7-1.1,8.2-3.6,10.8-7.5c2.5-3.9,3.8-8.9,3.8-14.9v-21.3c0-4.8-1.3-8.7-3.8-11.6c-2.9-3.4-7-5-12.4-5L355.6,184z M365.3,215.4
	c-1.7,2.8-5.2,4.3-10.3,4.3s-6.1-1.3-8.1-4s-3-6.3-3-10.8s1.1-8.3,3.2-11c2.1-2.6,5-4,8.6-4c6.5,0,9.7,3.8,9.7,11.3v14.2H365.3z"/>
<path class="st0" d="M416.9,167.8c0,2.7,1.3,4.1,4,4.1s3.8-1.4,3.8-4.1s-1.3-3.9-3.8-3.9S416.9,165.2,416.9,167.8z"/>
<path class="st0" d="M428,167.8c0,2.7,1.3,4.1,4,4.1s3.8-1.4,3.8-4.1s-1.3-3.9-3.8-3.9S428,165.2,428,167.8z"/>
<path class="st0" d="M472.6,236.9c-2.6,0-3.9,1.3-3.9,4s1.3,4,3.9,4s3.9-1.3,3.9-4S475.2,236.9,472.6,236.9z"/>
<path class="st0" d="M483.6,236.9c-2.6,0-3.9,1.3-3.9,4s1.3,4,3.9,4s3.9-1.3,3.9-4S486.2,236.9,483.6,236.9z"/>
<path class="st0" d="M510.1,209.6c0,7.4-3.6,11.1-10.7,11.1h-4.8c-7.1,0-10.7-3.7-10.7-11.1v-24.4l-6.5,3.4v21
	c0,7.4-3.6,11.1-10.7,11.1h-16c-7.2,0-10.8-3.7-10.8-11.1v-30.3l-6.5,3.4v5.2c-2.8-2.5-6.4-3.7-10.6-3.7s-8.6,1.6-11.7,4.9
	c-3.6,3.8-5.4,8.7-5.4,14.9s1.4,9.7,4.1,13.3c3.2,4.2,7.6,6.3,13.2,6.3s9.1-1.7,12.4-5.2c2.7,5.4,7.5,8.1,14.5,8.1h17.6
	c5.8,0,10.1-2,13.2-5.9c2.9,3.9,7.3,5.9,13.1,5.9h6.4c4.8,0,8.7-1.4,11.6-4.2c3.2-3,4.8-7.3,4.8-12.7V185l-6.5,3.4v21L510.1,209.6z
	 M423.2,218.1c-3.3,0-6-1.3-8-3.8s-3.1-5.9-3.1-10.1s1-7.5,3.1-10.1c2-2.6,4.7-3.9,7.9-3.9s7.5,1.7,10.4,5.1v14.4
	c0,0.7,0,1.6,0.2,2.8c-2.8,3.7-6.3,5.5-10.5,5.5V218.1z"/>
<path class="st0" d="M512.9,164.4c-2.7,0-4,1.3-4,3.9s1.3,4.1,4,4.1s3.8-1.4,3.8-4.1S515.4,164.4,512.9,164.4z"/>
<path class="st0" d="M670.4,164.4c-2.7,0-4,1.3-4,3.9s1.3,4.1,4,4.1s3.8-1.4,3.8-4.1S672.9,164.4,670.4,164.4z"/>
<path class="st0" d="M667.6,209.6c0,7.4-3.6,11.1-10.7,11.1h-7.1c-7.4,0-11.1-3.8-11.1-11.4v-24l-6.5,3.4v21
	c0,7.4-3.6,11.1-10.8,11.1h-3.5c-7.2,0-10.8-3.7-10.8-11.1v-20.9l-6.5,3.5v17.5c0,7.4-3.6,11.1-10.7,11.1h-3.6
	c-7.1,0-10.7-3.7-10.7-11.1v-17.4l-6.5,3.4v14c0,7.4-3.6,11.1-10.8,11.1h-7.4c-7.1,0-10.7-3.7-10.7-11.1v-45.5l-6.5,3.4V210
	c0,4.7,1.2,8.5,3.7,11.5c3,3.6,7.2,5.3,12.7,5.3h9c6,0,10.4-2.1,13.1-6.4c2.8,4.3,7.2,6.4,13.2,6.4h5.3c5.9,0,10.2-2.1,13-6.4
	c2.7,4.3,7.1,6.4,13.1,6.4h5.3c5.9,0,10.3-2.2,13.2-6.5c2.8,4.3,7.3,6.5,13.5,6.5h8.5c4.8,0,8.7-1.4,11.6-4.2
	c3.2-3,4.8-7.3,4.8-12.7v-24.6l-6.5,3.4v21L667.6,209.6z"/>
<path class="st0" d="M726.9,209.2c0,7.6-3.7,11.4-11.1,11.4H709v-43.9l-6.4,3.4v40.5h-14.8l-3.1,6h31.8c5,0,9-1.5,11.9-4.4
	c3.2-3.2,4.8-7.5,4.8-13V164l-6.4,3.4v41.7L726.9,209.2z"/>
<polygon class="st0" points="750.8,226.7 757.3,226.7 757.3,164.1 750.8,167.5 "/>
<path class="st0" d="M803.4,167.8c0,2.7,1.3,4.1,4,4.1s3.8-1.4,3.8-4.1s-1.3-3.9-3.8-3.9S803.4,165.2,803.4,167.8z"/>
<path class="st0" d="M814.4,167.8c0,2.7,1.3,4.1,4,4.1s3.8-1.4,3.8-4.1s-1.3-3.9-3.8-3.9S814.4,165.2,814.4,167.8z"/>
<path class="st0" d="M841.8,236.9c-2.7,0-4,1.3-4,3.9s1.3,4.1,4,4.1s3.8-1.4,3.8-4.1S844.3,236.9,841.8,236.9z"/>
<path class="st0" d="M852.8,236.9c-2.7,0-4,1.3-4,3.9s1.3,4.1,4,4.1s3.8-1.4,3.8-4.1S855.3,236.9,852.8,236.9z"/>
<path class="st0" d="M852.6,209.6c0,7.4-3.6,11.1-10.7,11.1h-4.8c-7.2,0-10.8-3.7-10.8-11.1v-30.3l-6.5,3.4v5.2
	c-2.8-2.5-6.4-3.7-10.6-3.7s-8.6,1.6-11.7,4.9c-3.6,3.8-5.4,8.7-5.4,14.9s1.4,9.7,4.1,13.3c3.2,4.2,7.6,6.3,13.2,6.3
	s9.1-1.7,12.4-5.2c2.7,5.4,7.5,8.1,14.4,8.1h6.4c4.8,0,8.7-1.4,11.6-4.2c3.2-3,4.8-7.3,4.8-12.7V185l-6.5,3.4v21L852.6,209.6z
	 M809.6,218.1c-3.3,0-6-1.3-8-3.8s-3.1-5.9-3.1-10.1s1-7.5,3.1-10.1c2-2.6,4.7-3.9,7.9-3.9s7.5,1.7,10.4,5.1v14.4
	c0,0.7,0,1.6,0.2,2.8c-2.8,3.7-6.3,5.5-10.5,5.5L809.6,218.1z"/>
<path class="st0" d="M978.6,220.7h-17.1c-4.8,0-8.6-1.5-11.4-4.4c-3-3-4.5-6.9-4.5-11.9s1.2-7.8,3.6-10.5c2.4-2.6,5.6-4,9.5-4h0.3
	c6.1,0,11.1,2.8,14.9,8.3v-6.4c-3.8-5.2-9-7.9-15.6-7.9c-4.8,0-9,1.6-12.5,4.7c-4.5,3.8-6.7,9-6.7,15.5s2,12.3,6.1,16.5h-51.5
	c-7.1,0-10.7-3.7-10.7-11.1V164l-6.5,3.4v42.3c0,4.7,1.2,8.5,3.7,11.5c3,3.6,7.2,5.3,12.7,5.3h85.6v-6L978.6,220.7z"/>
<path class="st0" d="M1063.3,167.5v41.7c0,7.6-3.7,11.4-11.1,11.4h-4.2c-7.1,0-10.7-3.7-10.7-11.1V164l-6.5,3.4v41.7
	c0,7.6-3.7,11.4-11.1,11.4h-4.2c-7.1,0-10.7-3.7-10.7-11.1V185l0,0l0,0l-6.4,3.4v33.8c0,7.4-2.3,12.5-6.8,15.2
	c-2.1,1.2-4.5,1.8-7.2,1.8s-6.8-0.9-10.1-2.7v5.7c3.5,1.8,7.1,2.7,10.9,2.7s4.5-0.4,6.6-1.1c8.1-2.8,12.5-9.6,13-20.4
	c2.7,1.9,6,2.9,10,2.9h5.6c5.9,0,10.4-2,13.5-6.1c2.9,4.1,7.3,6.1,13.3,6.1h5.6c5,0,9-1.5,12-4.4c3.2-3.2,4.8-7.5,4.8-13v-45.2
	l-6.5,3.4L1063.3,167.5z"/>
</svg>
