<?xml version="1.0" encoding="UTF-8"?>
<svg id="uuid-86bc2d82-ea1a-4b0f-b822-1435ec9a3db3" data-name="Layer 1" xmlns="http://www.w3.org/2000/svg" viewBox="0 0 1069.8 245.2">
  <path d="M77.9,80.4v-17.7c0-7.8-2.1-14.2-6.4-19.1-5-5.7-11.9-8.5-20.7-8.5s-15.6,2.8-20.8,8.3c-6,6.4-8.9,15-8.9,25.9s1.3,12.4,4,16.5c-7.3,.6-13.2,3.1-17.6,7.4-5,5.1-7.4,11.8-7.4,20.2v37.1l18.8-9.8v-26.4c0-3.9,.8-6.6,2.4-8.3,1.6-1.6,4.3-2.5,8-2.5h20.7c8.8,0,15.7-2.2,20.5-6.3,4.9-4.1,7.3-9.8,7.4-17.1Zm-18.8-3c0,5.6-2.9,8.3-8.6,8.3s-11.2-5.7-11.2-17,1-9,3.1-11.9c2-2.9,4.8-4.3,8.4-4.3,5.6,0,8.3,3.3,8.3,9.8v15Z" style="fill: #fff;"/>
  <path d="M129.4,102.7c.9,0,2.2,.2,3.9,.4,1.7,0,2.9,.2,3.7,.3-.3,3.2-2.1,5.9-5.3,8.2-3.2,2.3-6.9,3.4-11.1,3.4s-10.7-1.5-16.1-4.6v16.2c6,3.4,12.1,5.1,18.3,5.1s14.9-2.2,20.8-6.6c7.2-5.4,11.2-12.5,11.9-21.4h102.6c7.4,0,13.4-2,17.9-6.1,5.4-4.9,8-12,8-21.3v-3.6c0-10.1-3-18.6-8.9-25.5-6.9-8.1-16.3-12.2-28.1-12.2s-24.8,5.2-35,15.6V7.7l-18.8,10v63.4c-.7,1.7-1.2,3.2-1.6,4.6h-36v-23.1c0-7.8-2.1-14.2-6.4-19.1-5-5.7-11.9-8.5-20.7-8.5s-15.6,2.8-20.8,8.3c-6,6.4-8.9,15-8.9,25.9s2.3,15.4,7,21.3c5.6,6.9,13.4,11,23.7,12.1Zm82.6-21.3c4.1-9,9.2-16.1,15.4-21.2,6.2-5.1,12.8-7.7,19.7-7.7s9.8,1.9,13.2,5.7c3.4,3.8,5.1,8.6,5.1,14.6v2.8c0,4.2-.5,6.9-1.6,8.2-1,1.3-3.2,1.9-6.5,1.9h-45.4v-4.3Zm-83.5-28.9c5.7,0,8.5,3.3,8.5,9.8v23.2c-3.1-.2-5.3-.4-6.7-.7-8.7-1.1-13.1-6.5-13.1-16.1s3.8-16.2,11.3-16.2Z" style="fill: #fff;"/>
  <path d="M349,103.8h22c16.2,0,30.5-3.9,42.9-11.8,4.1,4.4,8.5,7.4,13.2,9.2,4.7,1.7,11,2.6,18.8,2.6h14.1c8.9,0,16.1-2.6,21.4-7.9,5.9-5.8,8.8-13.4,8.8-23.1V7.7l-18.6,10v54.9c0,4.8-1,8.1-2.9,10.1-1.9,2-5.2,3-9.8,3h-13c-9.1,0-15.7-1.2-19.7-3.6,2.6-2.6,4.7-4.9,6.3-7v-7.4c-5.7-10.4-12.2-18.5-19.5-24.1-7.3-5.7-14.9-8.5-22.6-8.5s-19.9,4.6-28.3,13.7v16.5c9.4-8.6,18.1-13,26.1-13s17.8,5.9,24.6,17.7c-10.3,10.4-24.2,15.6-41.7,15.6h-26.6c-3.8,0-6.5-.8-8-2.5-1.6-1.6-2.4-4.4-2.4-8.3V37.7h-.1c0,.1,0,0,0,0l-6.4,3.4-12.2,6.4v48.2c0,6.3-1.5,11.1-4.5,14.7-3,3.5-7.3,5.3-12.7,5.3s-10-1.4-15.2-4.3v16.4c6,3.2,12.1,4.8,18.3,4.8s14.9-2.5,20.7-7.4c6.4-5.6,10.2-13.1,11.5-22.6,2.9,.9,6,1.3,9.4,1.3h6.3Z" style="fill: #fff;"/>
  <path d="M395.1,22.6c6.5,0,9.7-3.3,9.7-10s-.9-5.3-2.6-7.1c-1.7-1.7-4.1-2.6-7.1-2.6s-5.4,.9-7.1,2.7c-1.8,1.8-2.7,4.1-2.7,7s.9,5.5,2.7,7.3,4.2,2.7,7.1,2.7Z" style="fill: #fff;"/>
  <polygon points="535.8 7.7 517.1 17.7 517.1 103.8 535.8 103.8 535.8 7.7" style="fill: #fff;"/>
  <path d="M631.7,19.7c6.5,0,9.7-3.3,9.7-10s-.9-5.3-2.6-7.1c-1.7-1.7-4.1-2.6-7.1-2.6-6.6,0-9.8,3.2-9.8,9.7s.9,5.5,2.7,7.3c1.8,1.8,4.2,2.7,7.1,2.7Z" style="fill: #fff;"/>
  <path d="M608.8,19.7c6.5,0,9.7-3.3,9.7-10s-.9-5.3-2.6-7.1c-1.7-1.7-4.1-2.6-7.1-2.6-6.6,0-9.8,3.2-9.8,9.7s.9,5.5,2.7,7.3c1.8,1.8,4.2,2.7,7.1,2.7Z" style="fill: #fff;"/>
  <path d="M876.5,22.6c6.5,0,9.7-3.3,9.7-10s-.9-5.3-2.6-7.1c-1.7-1.7-4.1-2.6-7.1-2.6s-5.4,.9-7.1,2.7c-1.8,1.8-2.7,4.1-2.7,7s.9,5.5,2.7,7.3c1.8,1.8,4.2,2.7,7.1,2.7Z" style="fill: #fff;"/>
  <path d="M803.8,103.8h84.3c6.8,0,12.6-1.8,17.1-5.5,4.6,3.7,10.4,5.5,17.6,5.5h21.4c7.2,0,13.2-1.9,18-5.8,4.8,3.9,10.8,5.8,18,5.8h21.4c6.7,0,12.5-1.7,17.3-5.2,5.1,3.5,11.6,5.2,19.5,5.2s14.8-2.8,20.1-8.3c5.9-6.4,8.8-15,8.8-26.1s-2.3-17.3-7-23.4c-5.5-7.2-13.1-10.9-22.9-10.9s-13.9,2.2-18.8,6.6c-5.6,5.1-8.3,12.1-8.3,21v12.4c0,3.9-.8,6.6-2.4,8.3-1.6,1.6-4.3,2.5-8,2.5h-17.9c-3.8,0-6.5-.8-8-2.5-1.6-1.6-2.4-4.4-2.4-8.3V37.7l-18.8,9.8v27.5c0,3.9-.8,6.6-2.4,8.3-1.6,1.6-4.3,2.5-8,2.5h-17.9c-7,0-10.6-3.3-10.6-9.8v-3.1c0-10.1-3-18.6-8.9-25.5-6.9-8.1-16.3-12.2-28.1-12.2s-24.7,5.2-34.8,15.5V7.7l-18.8,10v63l-1.8,5.1h-31c-3.8,0-6.5-.8-8.1-2.5-1.6-1.6-2.5-4.4-2.5-8.3v-4.3c0-10.1-2.3-18.3-6.8-24.6-5.5-7.3-13.2-11-23.2-11s-15.9,2.8-21.1,8.5c-6.1,6.5-9.1,15.5-9.1,27.1v4.3c0,3.9-.8,6.6-2.4,8.3-1.6,1.6-4.3,2.5-8,2.5h-52.4c-3.8,0-6.5-.8-8.1-2.5s-2.5-4.4-2.5-8.3V25.5l-18.6,9.8v3.9c-3.1-1.4-6.5-2.1-10.1-2.1-7,0-13.2,2.6-18.6,7.7-6.4,6.2-9.5,14.1-9.5,24s2.2,14.7,6.7,20.4c5.5,6.8,12.8,10.3,21.9,10.3s11.4-1.6,15.6-4.9c5.1,6.2,12.2,9.2,21.4,9.2h56c7,0,13-1.8,17.7-5.5,5.2,5.7,12.2,8.5,21.1,8.5s15.8-2.8,21.1-8.5c4.6,3.7,10.4,5.5,17.6,5.5h15.2Zm225.3-41.4c0-6.6,2.8-9.8,8.3-9.8s11.5,5.4,11.5,16.2-3.7,17-11,17-8.8-2.8-8.8-8.3v-15Zm-187,18.8c4.1-8.9,9.2-15.9,15.4-21,6.2-5.1,12.7-7.6,19.6-7.6s9.8,1.9,13.2,5.7c3.4,3.8,5.1,8.6,5.1,14.6v2.8c0,4.2-.5,6.9-1.6,8.2-1,1.3-3.2,1.9-6.5,1.9h-45.3v-4.6Zm-223,2.4c-3.5,0-6.2-1.3-8.2-3.9-2-2.6-3-6.1-3-10.4s1-7.9,3.1-10.6c2-2.7,4.7-4,8-4s6.2,1.1,8.8,3.3v18c0,1.7,0,2.9,.1,3.7-2.1,2.6-5,3.9-8.8,3.9Zm130.9,5.2c-7.6,0-11.5-6.2-11.5-18.5s3.8-17.7,11.5-17.7,11.3,5.9,11.3,17.7-3.8,18.5-11.3,18.5Z" style="fill: #fff;"/>
  <path d="M958.2,22.6c6.5,0,9.7-3.3,9.7-10s-.9-5.3-2.6-7.1c-1.7-1.7-4.1-2.6-7.1-2.6s-5.4,.9-7.1,2.7-2.7,4.1-2.7,7,.9,5.5,2.7,7.3c1.8,1.8,4.2,2.7,7.1,2.7Z" style="fill: #fff;"/>
  <path d="M87,171.9c2.5,0,3.8-1.4,3.8-4.1s-1.3-3.9-3.8-3.9-4,1.3-4,3.9,1.3,4.1,4,4.1Z" style="fill: #fff;"/>
  <path d="M72,167.8c0,2.7,1.3,4.1,4,4.1s3.8-1.4,3.8-4.1-1.3-3.9-3.8-3.9-4,1.3-4,3.9Z" style="fill: #fff;"/>
  <path d="M138.7,236.9c-2.6,0-3.9,1.3-3.9,4s1.3,4,3.9,4,3.9-1.3,3.9-4-1.3-4-3.9-4Z" style="fill: #fff;"/>
  <path d="M127.6,236.9c-2.6,0-3.9,1.3-3.9,4s1.3,4,3.9,4,3.9-1.3,3.9-4-1.3-4-3.9-4Z" style="fill: #fff;"/>
  <path d="M225.7,168.3c0,2.7,1.3,4.1,4,4.1s3.8-1.4,3.8-4.1-1.3-3.9-3.8-3.9-4,1.3-4,3.9Z" style="fill: #fff;"/>
  <path d="M263.1,168.7c0,2.7,1.3,4,3.9,4s3.9-1.3,3.9-4-1.3-4-3.9-4-3.9,1.3-3.9,4Z" style="fill: #fff;"/>
  <path d="M252,168.7c0,2.7,1.3,4,3.9,4s3.9-1.3,3.9-4-1.3-4-3.9-4-3.9,1.3-3.9,4Z" style="fill: #fff;"/>
  <path d="M292.6,209.2c0,7.6-3.7,11.4-11.1,11.4h-4.2c-7.1,0-10.7-3.7-10.7-11.1v-24.4l-6.5,3.4v21c0,7.4-3.6,11.1-10.7,11.1h-4.8c-7.1,0-10.7-3.7-10.7-11.1v-24.4l-6.5,3.4v21c0,7.4-3.6,11.1-10.7,11.1h-4.8c-7.2,0-10.8-3.7-10.8-11.1v-3.3c0-6.5-1.4-11.6-4.2-15.5-3.2-4.5-7.8-6.8-13.9-6.8s-9.5,1.7-12.7,5.2c-3.6,3.9-5.4,9.6-5.4,17.1v3.3c0,7.4-3.6,11.1-10.7,11.1h-4.8c-7.1,0-10.7-3.7-10.7-11.1v-24.4l-6.5,3.4v21c0,7.4-3.6,11.1-10.7,11.1h-16c-7.2,0-10.8-3.7-10.8-11.1v-30.3l-6.5,3.4v5.2c-2.8-2.5-6.4-3.7-10.6-3.7s-8.6,1.6-11.7,4.9c-3.6,3.8-5.4,8.7-5.4,14.9s1.4,9.7,4.1,13.3c3.2,4.2,7.6,6.3,13.2,6.3s9.1-1.7,12.4-5.2c2.7,5.4,7.5,8.1,14.4,8.1h17.6c5.8,0,10.1-2,13.2-5.9,2.9,3.9,7.3,5.9,13.1,5.9h6.4c5.9,0,10.3-2,13.3-6,3.2,5.3,8.1,8,14.7,8s11.5-2.7,14.7-8c2.9,4.1,7.3,6.1,13.2,6.1h6.4c5.8,0,10.1-2,13.2-5.9,2.9,3.9,7.3,5.9,13.1,5.9h6.4c5.8,0,10.1-2,13.2-5.9,2.9,3.9,7.3,5.9,13.1,5.9h5.6c5,0,9-1.5,12-4.4,3.2-3.2,4.8-7.5,4.8-13v-45.2l-6.5,3.4v41.7Zm-214.3,8.9c-3.3,0-6-1.3-8-3.8-2-2.5-3.1-5.9-3.1-10.1s1-7.5,3.1-10.1c2-2.6,4.7-3.9,7.9-3.9s7.5,1.7,10.4,5.1v14.4c0,.7,0,1.6,.2,2.8-2.8,3.7-6.3,5.5-10.5,5.5Zm113.5,0c-2.1,2.9-4.9,4.4-8.4,4.4-7.8,0-11.6-5.5-11.6-16.4s3.9-16.3,11.6-16.3,11.5,5.4,11.5,16.3-1,9-3.1,12Z" style="fill: #fff;"/>
  <polygon points="316.5 226.7 323 226.7 323 164.1 316.5 167.5 316.5 226.7" style="fill: #fff;"/>
  <path d="M355.6,184c-5.2,0-9.4,1.7-12.6,5-3.6,3.8-5.4,9.1-5.4,15.9s1.4,10.3,4.1,14c3.2,4.3,7.6,6.5,13.2,6.5s7.8-.8,10.5-2.3c-.2,7.4-2.6,12.3-7.1,14.5-2,1.2-4.3,1.7-7,1.7s-6.6-.9-10-2.7v5.7c3.6,1.8,7.2,2.7,11,2.7s3.5-.2,5-.7c4.7-1.1,8.2-3.6,10.8-7.5,2.5-3.9,3.8-8.9,3.8-14.9v-21.3c0-4.8-1.3-8.7-3.8-11.6-2.9-3.4-7-5-12.4-5Zm9.7,31.4c-1.7,2.8-5.2,4.3-10.3,4.3s-6.1-1.3-8.1-4c-2-2.7-3-6.3-3-10.8s1.1-8.3,3.2-11c2.1-2.6,5-4,8.6-4,6.5,0,9.7,3.8,9.7,11.3v14.2Z" style="fill: #fff;"/>
  <path d="M416.9,167.8c0,2.7,1.3,4.1,4,4.1s3.8-1.4,3.8-4.1-1.3-3.9-3.8-3.9-4,1.3-4,3.9Z" style="fill: #fff;"/>
  <path d="M428,167.8c0,2.7,1.3,4.1,4,4.1s3.8-1.4,3.8-4.1-1.3-3.9-3.8-3.9-4,1.3-4,3.9Z" style="fill: #fff;"/>
  <path d="M472.6,236.9c-2.6,0-3.9,1.3-3.9,4s1.3,4,3.9,4,3.9-1.3,3.9-4-1.3-4-3.9-4Z" style="fill: #fff;"/>
  <path d="M483.6,236.9c-2.6,0-3.9,1.3-3.9,4s1.3,4,3.9,4,3.9-1.3,3.9-4-1.3-4-3.9-4Z" style="fill: #fff;"/>
  <path d="M510.1,209.6c0,7.4-3.6,11.1-10.7,11.1h-4.8c-7.1,0-10.7-3.7-10.7-11.1v-24.4l-6.5,3.4v21c0,7.4-3.6,11.1-10.7,11.1h-16c-7.2,0-10.8-3.7-10.8-11.1v-30.3l-6.5,3.4v5.2c-2.8-2.5-6.4-3.7-10.6-3.7s-8.6,1.6-11.7,4.9c-3.6,3.8-5.4,8.7-5.4,14.9s1.4,9.7,4.1,13.3c3.2,4.2,7.6,6.3,13.2,6.3s9.1-1.7,12.4-5.2c2.7,5.4,7.5,8.1,14.5,8.1h17.6c5.8,0,10.1-2,13.2-5.9,2.9,3.9,7.3,5.9,13.1,5.9h6.4c4.8,0,8.7-1.4,11.6-4.2,3.2-3,4.8-7.3,4.8-12.7v-24.6l-6.5,3.4v21Zm-86.9,8.5c-3.3,0-6-1.3-8-3.8-2-2.5-3.1-5.9-3.1-10.1s1-7.5,3.1-10.1c2-2.6,4.7-3.9,7.9-3.9s7.5,1.7,10.4,5.1v14.4c0,.7,0,1.6,.2,2.8-2.8,3.7-6.3,5.5-10.5,5.5Z" style="fill: #fff;"/>
  <path d="M512.9,164.4c-2.7,0-4,1.3-4,3.9s1.3,4.1,4,4.1,3.8-1.4,3.8-4.1-1.3-3.9-3.8-3.9Z" style="fill: #fff;"/>
  <path d="M670.4,164.4c-2.7,0-4,1.3-4,3.9s1.3,4.1,4,4.1,3.8-1.4,3.8-4.1-1.3-3.9-3.8-3.9Z" style="fill: #fff;"/>
  <path d="M667.6,209.6c0,7.4-3.6,11.1-10.7,11.1h-7.1c-7.4,0-11.1-3.8-11.1-11.4v-24l-6.5,3.4v21c0,7.4-3.6,11.1-10.8,11.1h-3.5c-7.2,0-10.8-3.7-10.8-11.1v-20.9l-6.5,3.5v17.5c0,7.4-3.6,11.1-10.7,11.1h-3.6c-7.1,0-10.7-3.7-10.7-11.1v-17.4l-6.5,3.4v14c0,7.4-3.6,11.1-10.8,11.1h-7.4c-7.1,0-10.7-3.7-10.7-11.1v-45.5l-6.5,3.4v42.3c0,4.7,1.2,8.5,3.7,11.5,3,3.6,7.2,5.3,12.7,5.3h9c6,0,10.4-2.1,13.1-6.4,2.8,4.3,7.2,6.4,13.2,6.4h5.3c5.9,0,10.2-2.1,13-6.4,2.7,4.3,7.1,6.4,13.1,6.4h5.3c5.9,0,10.3-2.2,13.2-6.5,2.8,4.3,7.3,6.5,13.5,6.5h8.5c4.8,0,8.7-1.4,11.6-4.2,3.2-3,4.8-7.3,4.8-12.7v-24.6l-6.5,3.4v21Z" style="fill: #fff;"/>
  <path d="M726.9,209.2c0,7.6-3.7,11.4-11.1,11.4h-6.8v-43.9l-6.4,3.4v40.5h-14.8l-3.1,6h31.8c5,0,9-1.5,11.9-4.4,3.2-3.2,4.8-7.5,4.8-13v-45.2l-6.4,3.4v41.7Z" style="fill: #fff;"/>
  <polygon points="750.8 226.7 757.3 226.7 757.3 164.1 750.8 167.5 750.8 226.7" style="fill: #fff;"/>
  <path d="M803.4,167.8c0,2.7,1.3,4.1,4,4.1s3.8-1.4,3.8-4.1-1.3-3.9-3.8-3.9-4,1.3-4,3.9Z" style="fill: #fff;"/>
  <path d="M814.4,167.8c0,2.7,1.3,4.1,4,4.1s3.8-1.4,3.8-4.1-1.3-3.9-3.8-3.9-4,1.3-4,3.9Z" style="fill: #fff;"/>
  <path d="M841.8,236.9c-2.7,0-4,1.3-4,3.9s1.3,4.1,4,4.1,3.8-1.4,3.8-4.1-1.3-3.9-3.8-3.9Z" style="fill: #fff;"/>
  <path d="M852.8,236.9c-2.7,0-4,1.3-4,3.9s1.3,4.1,4,4.1,3.8-1.4,3.8-4.1-1.3-3.9-3.8-3.9Z" style="fill: #fff;"/>
  <path d="M852.6,209.6c0,7.4-3.6,11.1-10.7,11.1h-4.8c-7.2,0-10.8-3.7-10.8-11.1v-30.3l-6.5,3.4v5.2c-2.8-2.5-6.4-3.7-10.6-3.7s-8.6,1.6-11.7,4.9c-3.6,3.8-5.4,8.7-5.4,14.9s1.4,9.7,4.1,13.3c3.2,4.2,7.6,6.3,13.2,6.3s9.1-1.7,12.4-5.2c2.7,5.4,7.5,8.1,14.4,8.1h6.4c4.8,0,8.7-1.4,11.6-4.2,3.2-3,4.8-7.3,4.8-12.7v-24.6l-6.5,3.4v21Zm-43,8.5c-3.3,0-6-1.3-8-3.8-2-2.5-3.1-5.9-3.1-10.1s1-7.5,3.1-10.1c2-2.6,4.7-3.9,7.9-3.9s7.5,1.7,10.4,5.1v14.4c0,.7,0,1.6,.2,2.8-2.8,3.7-6.3,5.5-10.5,5.5Z" style="fill: #fff;"/>
  <path d="M978.6,220.7h-17.1c-4.8,0-8.6-1.5-11.4-4.4-3-3-4.5-6.9-4.5-11.9s1.2-7.8,3.6-10.5c2.4-2.6,5.6-4,9.5-4h.3c6.1,0,11.1,2.8,14.9,8.3v-6.4c-3.8-5.2-9-7.9-15.6-7.9-4.8,0-9,1.6-12.5,4.7-4.5,3.8-6.7,9-6.7,15.5s2,12.3,6.1,16.5h-51.5c-7.1,0-10.7-3.7-10.7-11.1v-45.5l-6.5,3.4v42.3c0,4.7,1.2,8.5,3.7,11.5,3,3.6,7.2,5.3,12.7,5.3h85.6v-6Z" style="fill: #fff;"/>
  <path d="M1063.3,167.5v41.7c0,7.6-3.7,11.4-11.1,11.4h-4.2c-7.1,0-10.7-3.7-10.7-11.1v-45.5l-6.5,3.4v41.7c0,7.6-3.7,11.4-11.1,11.4h-4.2c-7.1,0-10.7-3.7-10.7-11.1v-24.4h0c0,0,0,0,0,0l-6.4,3.4v33.8c0,7.4-2.3,12.5-6.8,15.2-2.1,1.2-4.5,1.8-7.2,1.8s-6.8-.9-10.1-2.7v5.7c3.5,1.8,7.1,2.7,10.9,2.7s4.5-.4,6.6-1.1c8.1-2.8,12.5-9.6,13-20.4,2.7,1.9,6,2.9,10,2.9h5.6c5.9,0,10.4-2,13.5-6.1,2.9,4.1,7.3,6.1,13.3,6.1h5.6c5,0,9-1.5,12-4.4,3.2-3.2,4.8-7.5,4.8-13v-45.2l-6.5,3.4Z" style="fill: #fff;"/>
</svg>